<svg width="100" height="71" viewBox="0 0 100 71" fill="none" xmlns="http://www.w3.org/2000/svg">
<path d="M1.00251 70.8152C0.668338 68.4812 0.417711 66.0638 0.250626 63.5631C0.083542 61.0624 0 59.2285 0 58.0615C0 46.8916 2.00501 36.3052 6.01504 26.3023C10.0251 16.1328 14.9541 7.54694 20.802 0.544922L46.1153 6.29658C42.9407 13.4653 40.3509 21.6343 38.3459 30.8036C36.5079 39.8063 35.589 48.3921 35.589 56.5611C35.589 56.8945 35.589 57.6447 35.589 58.8117C35.589 59.812 35.589 61.0624 35.589 62.5628C35.7561 63.8965 35.8396 65.3136 35.8396 66.814C36.0067 68.3145 36.1738 69.6482 36.3409 70.8152H1.00251ZM54.8872 70.8152C54.553 68.4812 54.3024 66.0638 54.1353 63.5631C53.9683 61.0624 53.8847 59.2285 53.8847 58.0615C53.8847 46.8916 55.8897 36.3052 59.8997 26.3023C63.9098 16.1328 68.8388 7.54694 74.6867 0.544922L100 6.29658C96.8254 13.4653 94.2356 21.6343 92.2306 30.8036C90.3927 39.8063 89.4737 48.3921 89.4737 56.5611C89.4737 56.8945 89.4737 57.6447 89.4737 58.8117C89.4737 59.812 89.4737 61.0624 89.4737 62.5628C89.6408 63.8965 89.7243 65.3136 89.7243 66.814C89.8914 68.3145 90.0585 69.6482 90.2256 70.8152H54.8872Z" fill="#001A8A"/>
</svg>
