<svg width="134" height="49" viewBox="0 0 134 49" fill="none" xmlns="http://www.w3.org/2000/svg">
<path d="M28.316 0H34.8404V47.3613H28.316V0ZM36.0218 30.9999L48.0772 16.3614H55.4723L43.2296 30.6923L56.1558 47.3613H48.3887L36.0218 30.9999Z" fill="#001A8A"/>
<path d="M80.7038 10.2719C80.1478 10.3168 79.5885 10.2437 79.0635 10.0573C78.5384 9.87085 78.0596 9.57549 77.6592 9.19106C77.2588 8.80664 76.946 8.34201 76.7418 7.82822C76.5375 7.31443 76.4467 6.76341 76.4751 6.212C76.4751 3.8134 78.2778 2.21428 80.7633 2.21428C81.3181 2.17456 81.8751 2.25135 82.3979 2.43962C82.9206 2.62789 83.3972 2.92341 83.7965 3.30675C84.1957 3.6901 84.5087 4.15264 84.7147 4.66407C84.9207 5.17549 85.0153 5.72425 84.992 6.27435C84.9961 6.82165 84.8861 7.36387 84.6687 7.86712C84.4514 8.37037 84.1315 8.82375 83.7289 9.199C83.3264 9.57423 82.85 9.86325 82.3294 10.0479C81.8089 10.2325 81.2554 10.3088 80.7038 10.2719ZM77.5356 16.3616H83.9961V47.3614H77.5339L77.5356 16.3616Z" fill="#001A8A"/>
<path d="M92.4479 0H98.9723V47.3613H92.4479V0Z" fill="#001A8A"/>
<path d="M130.333 47.9151C127.039 47.9151 125.176 46.5611 124.551 44.3471C123.297 45.5626 121.81 46.5158 120.176 47.1499C118.543 47.7841 116.797 48.0862 115.043 48.0381C109.575 48.0381 105.535 44.8399 105.535 39.7344C105.535 34.9978 108.828 29.5856 123.681 29.3986V28.353C123.681 23.3705 122.624 20.9719 117.404 20.9719C114.043 21.0674 110.739 21.8637 107.71 23.3089L107.279 18.5118C110.602 16.7413 114.317 15.8117 118.092 15.8057C126.667 15.8057 130.023 19.7419 130.023 27.4305V38.5634C130.023 42.1919 129.96 43.7911 134 43.6031L133.752 47.5393C132.629 47.7929 131.484 47.9189 130.333 47.9151ZM111.566 39.0579C111.566 41.4573 113.493 43.1787 116.848 43.1787C119.389 43.2148 121.843 42.264 123.685 40.5306V33.5816C114.301 33.3988 111.566 36.2903 111.566 39.0579Z" fill="#001A8A"/>
<path d="M51.8059 31.0006L63.8621 16.3613H71.2564L59.0138 30.6922L71.9398 47.3611H64.172L51.8059 31.0006Z" fill="#3FC5D6"/>
<path d="M9.19794 47.9148C6.07404 47.8977 2.98661 47.2491 0.125152 46.0083L0 40.8412C2.76646 42.1121 5.77531 42.7835 8.82513 42.8101C13.1126 42.8101 14.8524 40.5952 14.8524 38.4426C14.8524 36.8427 14.1688 35.2437 10.0057 33.9521L6.96105 33.0919C2.0514 31.615 0.0629978 29.0319 0.0629978 24.9719C0.0629978 20.4206 3.48138 15.8071 11.8077 15.8071C14.6785 15.774 17.5284 16.2964 20.197 17.3447L19.7655 22.1427C17.2824 21.302 14.6833 20.8457 12.0597 20.7896C7.89652 20.7896 6.4044 22.6963 6.4044 24.6029C6.4044 26.4479 7.21306 27.5559 11.0646 28.7236L14.1093 29.6461C19.7024 31.246 21.3801 34.5671 21.3801 38.0736C21.3775 42.6248 18.0835 47.9148 9.19794 47.9148Z" fill="#001A8A"/>
</svg>
